 <svg  version="1.0" xmlns="http://www.w3.org/2000/svg"  width="900.000000pt" height="900.000000pt" viewBox="0 0 900.000000 900.000000"  preserveAspectRatio="xMidYMid meet">  <g transform="translate(0.000000,900.000000) scale(0.100000,-0.100000)" fill="#ffffff" stroke="none"> <path d="M6095 7161 c-113 -13 -332 -73 -403 -110 -9 -5 -51 -26 -92 -46 -41 -20 -88 -45 -105 -56 -16 -10 -37 -22 -45 -26 -44 -20 -187 -139 -273 -226 -170 -174 -279 -367 -333 -592 -36 -152 -40 -426 -7 -570 61 -274 234 -526 508 -741 49 -38 232 -149 263 -158 12 -4 22 -12 22 -17 0 -5 9 -9 19 -9 11 0 22 -4 25 -8 3 -5 137 -75 298 -156 450 -227 523 -270 628 -376 95 -96 114 -141 108 -267 -6 -130 -50 -211 -164 -300 -23 -18 -46 -33 -52 -33 -5 0 -15 -7 -22 -15 -7 -8 -22 -15 -34 -15 -12 0 -27 -5 -33 -11 -28 -28 -373 -49 -488 -30 -77 13 -162 36 -212 57 -18 8 -48 20 -65 28 -51 21 -297 144 -363 181 -33 19 -67 38 -75 42 -8 4 -48 30 -88 57 -104 72 -123 84 -157 100 -34 16 -45 11 -70 -37 -9 -18 -24 -44 -33 -59 -34 -54 -255 -420 -269 -446 -8 -15 -23 -40 -33 -57 -11 -16 -24 -39 -30 -50 -6 -11 -19 -33 -30 -50 -11 -16 -23 -37 -27 -45 -3 -8 -17 -29 -30 -46 -13 -17 -23 -37 -23 -45 0 -26 157 -144 279 -211 24 -13 68 -37 99 -54 62 -35 246 -126 302 -150 19 -9 48 -22 63 -30 16 -8 35 -14 42 -14 8 0 29 -6 47 -14 79 -33 371 -106 423 -106 17 0 65 -7 108 -15 91 -17 601 -21 677 -5 25 6 79 14 120 20 98 13 258 51 317 76 17 8 39 14 50 14 10 0 27 7 37 15 11 8 27 15 35 15 13 0 182 81 236 114 200 120 373 305 465 496 64 135 94 223 124 370 38 187 44 316 21 470 -36 249 -136 438 -338 641 -104 104 -312 268 -392 309 -11 6 -47 26 -80 44 -63 36 -289 148 -390 195 -288 133 -544 264 -602 307 -17 13 -35 24 -40 24 -21 0 -127 120 -149 167 -38 82 -31 185 17 263 5 8 14 26 19 38 14 33 110 124 151 143 113 54 113 54 319 53 198 -1 212 -3 380 -51 30 -8 73 -22 95 -30 22 -8 58 -22 80 -30 113 -42 304 -137 338 -169 14 -13 30 -24 36 -24 5 0 26 33 46 73 20 39 65 126 99 192 35 66 110 212 166 325 57 113 107 207 112 208 4 2 8 12 8 23 0 36 -157 136 -340 215 -19 9 -48 22 -63 30 -16 8 -36 14 -45 14 -9 0 -26 7 -36 15 -11 8 -26 15 -34 15 -8 0 -28 6 -45 13 -49 21 -215 68 -322 91 -197 42 -240 47 -458 51 -122 2 -253 0 -292 -4z m635 -107 c103 -19 183 -39 355 -91 87 -27 216 -75 305 -115 19 -9 42 -19 50 -22 8 -3 23 -10 33 -16 27 -16 49 -28 95 -51 62 -33 59 -59 -33 -249 -42 -85 -80 -162 -85 -170 -5 -8 -27 -51 -50 -95 -132 -256 -105 -239 -260 -164 -69 33 -138 67 -153 75 -16 7 -36 14 -46 14 -9 0 -26 7 -37 15 -10 8 -28 15 -39 15 -11 0 -33 7 -49 15 -15 8 -38 15 -50 15 -11 0 -41 6 -66 14 -103 33 -232 48 -380 44 -148 -4 -165 -7 -269 -57 -135 -63 -238 -185 -286 -340 -16 -50 -16 -57 0 -115 9 -33 21 -68 26 -76 4 -8 18 -34 31 -58 38 -74 134 -164 240 -227 22 -13 398 -201 418 -209 8 -3 22 -10 30 -15 8 -5 74 -37 145 -71 72 -34 150 -72 175 -85 162 -84 208 -108 235 -125 17 -11 37 -23 45 -27 15 -7 71 -44 80 -53 3 -3 24 -17 46 -32 167 -108 402 -368 473 -523 13 -27 28 -59 34 -70 6 -11 17 -92 24 -180 15 -177 5 -414 -23 -511 -8 -28 -14 -62 -14 -75 0 -13 -7 -37 -15 -53 -8 -15 -15 -34 -15 -40 0 -18 -65 -165 -79 -179 -6 -6 -11 -15 -11 -19 0 -4 -21 -38 -46 -75 -75 -111 -221 -245 -337 -309 -67 -38 -265 -134 -276 -134 -5 0 -22 -6 -38 -14 -51 -25 -102 -41 -213 -65 -120 -26 -240 -35 -550 -38 -389 -5 -556 10 -725 68 -16 6 -43 14 -60 19 -16 4 -41 12 -55 18 -14 5 -45 18 -70 27 -43 17 -68 27 -142 59 -39 16 -144 65 -208 95 -42 21 -53 26 -97 51 -10 5 -40 21 -68 35 -106 56 -225 136 -225 153 0 7 17 39 37 70 56 86 61 95 74 125 6 15 15 27 20 27 5 0 9 5 9 11 0 9 57 106 205 347 41 68 84 129 99 141 14 12 19 11 34 -3 10 -9 22 -16 26 -16 4 0 28 -16 54 -35 77 -57 94 -68 127 -85 11 -6 47 -26 80 -44 128 -72 386 -196 408 -196 6 0 21 -7 31 -15 11 -8 31 -15 44 -15 13 0 33 -5 44 -11 27 -14 224 -39 308 -38 120 0 310 35 367 67 12 6 27 12 33 12 32 0 193 148 223 205 41 76 47 106 47 238 0 155 -10 184 -98 279 -84 91 -137 128 -392 278 -8 4 -145 74 -305 154 -356 179 -440 227 -600 338 -91 64 -245 223 -307 318 -131 201 -183 375 -183 610 0 123 7 181 36 295 6 22 14 56 19 75 44 180 206 416 377 551 37 30 73 59 78 64 18 20 114 80 190 120 28 14 57 30 65 34 21 12 76 36 130 56 25 9 60 23 78 31 18 8 43 14 55 14 12 1 45 7 72 15 76 21 630 21 745 -1z"/> <path d="M1926 7092 c-9 -15 -8 -4615 1 -4622 5 -4 82 -4 173 1 91 4 255 8 365 8 110 1 239 6 285 12 47 6 128 15 180 19 100 10 181 24 240 42 19 6 51 15 70 19 36 7 83 23 135 45 17 7 50 20 75 29 50 20 107 44 130 56 8 4 42 22 75 39 34 16 83 45 111 63 28 19 57 37 65 40 55 27 256 187 354 283 177 173 292 326 432 569 32 57 96 195 118 256 85 240 99 306 121 594 23 306 2 646 -52 816 -7 26 -14 54 -14 63 0 8 -6 30 -14 48 -7 18 -21 58 -31 88 -25 82 -78 211 -116 280 -4 8 -20 38 -35 65 -118 219 -357 504 -539 643 -33 25 -68 54 -78 64 -20 21 -139 100 -192 128 -11 6 -33 19 -50 29 -16 11 -77 42 -135 71 -58 28 -118 57 -133 65 -16 8 -33 15 -39 15 -5 0 -24 6 -41 13 -124 53 -289 95 -417 107 -52 5 -125 14 -162 20 -37 5 -133 10 -215 10 -157 0 -537 16 -614 26 -27 3 -49 1 -53 -4z m874 -123 c284 -26 319 -32 405 -61 17 -5 46 -14 65 -18 19 -4 60 -18 90 -30 30 -12 64 -24 74 -28 37 -11 270 -133 329 -173 33 -21 61 -39 64 -39 6 0 162 -118 208 -158 119 -104 259 -250 332 -347 65 -86 92 -124 118 -165 36 -56 144 -266 155 -300 5 -14 18 -50 30 -80 12 -30 26 -71 30 -90 17 -68 32 -125 42 -158 5 -18 14 -74 19 -125 5 -51 14 -132 19 -182 12 -114 12 -396 -1 -500 -5 -44 -13 -118 -18 -165 -6 -47 -14 -98 -20 -115 -5 -16 -14 -50 -21 -75 -6 -25 -15 -63 -21 -85 -6 -22 -14 -44 -20 -49 -5 -6 -9 -19 -9 -31 0 -12 -7 -30 -15 -41 -8 -10 -15 -26 -15 -35 0 -23 -120 -256 -168 -329 -23 -34 -42 -65 -42 -67 0 -6 -90 -121 -139 -178 -65 -75 -231 -233 -309 -294 -42 -34 -84 -67 -92 -74 -8 -6 -22 -16 -31 -22 -10 -5 -55 -33 -101 -61 -45 -28 -103 -61 -128 -73 -25 -12 -52 -26 -60 -30 -14 -9 -51 -25 -125 -57 -109 -46 -155 -63 -206 -73 -19 -4 -42 -12 -49 -16 -8 -5 -32 -12 -55 -16 -22 -4 -58 -12 -80 -17 -88 -22 -198 -35 -365 -42 -96 -4 -289 -14 -428 -20 -139 -7 -254 -11 -257 -8 -4 3 -8 3803 -5 4433 0 13 645 8 800 -6z"/> <path d="M2315 6215 c-56 -16 -76 -35 -92 -91 -22 -75 -46 -968 -40 -1489 8 -687 25 -1190 43 -1241 18 -51 31 -54 188 -53 219 1 391 29 521 85 196 83 318 166 463 314 83 84 182 216 222 295 5 11 14 27 20 35 16 25 70 146 70 158 0 6 6 26 14 44 76 182 93 380 61 718 -21 219 -41 296 -125 470 -96 200 -279 408 -475 538 -77 51 -256 142 -279 142 -9 0 -30 6 -48 14 -49 20 -114 36 -198 46 -41 5 -106 14 -145 20 -92 12 -139 11 -200 -5z m315 -91 c47 -8 103 -20 125 -25 22 -6 56 -14 75 -19 40 -10 112 -36 138 -49 9 -5 24 -12 32 -15 8 -3 22 -10 30 -15 8 -5 22 -12 30 -16 20 -8 43 -22 114 -70 97 -65 326 -299 326 -333 0 -6 4 -12 8 -14 15 -5 86 -138 126 -230 36 -87 59 -174 87 -333 24 -139 13 -411 -22 -550 -6 -22 -14 -58 -19 -80 -8 -41 -23 -88 -45 -140 -7 -16 -21 -50 -31 -75 -10 -25 -23 -52 -30 -60 -6 -8 -15 -25 -18 -37 -4 -13 -11 -23 -16 -23 -4 0 -10 -8 -14 -17 -14 -42 -126 -181 -207 -259 -148 -141 -347 -253 -519 -294 -19 -5 -53 -13 -75 -19 -74 -18 -309 -43 -380 -39 l-70 3 -3 1350 c-1 743 0 1356 3 1363 7 18 249 16 355 -4z"/> <path d="M1224 7075 c-2 -5 -3 -1043 -2 -2305 l3 -2295 74 -3 c41 -2 78 1 84 7 6 6 11 396 13 1028 3 560 9 1401 14 1868 12 1004 14 1694 6 1702 -10 11 -188 9 -192 -2z m112 -1936 c-5 -1742 -15 -2351 -38 -2375 -10 -9 -9 2903 1 3656 3 294 10 541 15 548 5 9 12 10 18 4 6 -6 8 -644 4 -1833z"/> <path d="M1599 7079 c-6 -3 -12 -271 -14 -680 -3 -371 -10 -1076 -16 -1568 -7 -491 -12 -1222 -13 -1623 -1 -721 -1 -729 19 -733 11 -2 56 -3 100 -2 l80 2 0 2305 0 2305 -73 0 c-41 0 -78 -3 -83 -6z m84 -2359 c-2 -1097 -6 -2032 -9 -2078 -4 -56 -10 -82 -17 -79 -8 2 -15 56 -21 153 -13 216 11 3796 26 3939 8 73 14 102 18 85 4 -14 5 -923 3 -2020z"/> <path d="M1902 1879 c-22 -8 -21 -10 23 -82 36 -60 45 -84 45 -121 0 -40 3 -46 25 -52 36 -9 57 12 49 48 -5 24 3 45 41 110 41 71 45 82 32 95 -24 25 -53 7 -77 -48 -21 -49 -22 -50 -40 -34 -11 10 -24 32 -30 50 -12 36 -33 47 -68 34z"/> <path d="M1574 1867 c-2 -7 -3 -62 -2 -123 l3 -109 74 -3 c63 -3 78 0 107 20 72 49 69 156 -6 203 -32 20 -53 25 -105 25 -45 0 -67 -4 -71 -13z m146 -67 c34 -34 23 -92 -21 -110 -48 -20 -59 -9 -59 65 l0 65 30 0 c17 0 39 -9 50 -20z"/> <path d="M2222 1758 l3 -123 75 -6 c83 -7 107 3 96 39 -6 17 -17 22 -54 24 l-47 3 0 90 0 90 -38 3 -38 3 3 -123z"/> <path d="M2556 1838 c-24 -61 -47 -111 -57 -128 -32 -54 -32 -90 1 -90 20 0 50 25 50 41 0 5 21 9 46 9 37 0 52 -5 70 -25 25 -27 62 -33 70 -11 3 7 -13 52 -35 100 -23 47 -41 92 -41 100 0 20 -34 46 -61 46 -20 0 -29 -9 -43 -42z m72 -81 c4 -32 -22 -47 -44 -26 -12 13 -12 18 2 37 20 29 38 24 42 -11z"/> <path d="M2842 1753 l3 -128 25 0 c24 0 25 3 28 68 2 51 6 67 17 67 8 0 15 -4 15 -9 0 -18 70 -116 88 -122 9 -4 25 -3 34 2 14 8 16 26 15 126 l-2 118 -30 0 -30 0 3 -68 c2 -66 2 -67 -18 -55 -11 7 -37 39 -57 71 -31 47 -42 57 -65 57 l-29 0 3 -127z"/> <path d="M3367 1855 c-26 -25 -34 -59 -19 -81 13 -19 56 -44 77 -44 26 0 45 -18 38 -36 -7 -18 -37 -18 -74 1 -22 12 -34 13 -49 5 -38 -21 -12 -54 53 -68 91 -19 157 21 142 87 -5 24 -15 32 -66 51 -36 14 -59 28 -59 38 0 12 10 13 59 8 68 -8 86 9 49 44 -33 31 -115 28 -151 -5z"/> <path d="M3710 1853 c-16 -44 -25 -63 -60 -135 -18 -37 -30 -74 -26 -83 9 -23 44 -18 62 10 24 36 97 36 131 -1 14 -16 32 -24 46 -22 23 3 36 36 19 47 -8 5 -70 144 -86 194 -4 12 -16 17 -41 17 -30 0 -37 -5 -45 -27z m64 -88 c7 -29 1 -45 -18 -45 -24 0 -35 21 -24 46 15 31 34 31 42 -1z"/> <path d="M3980 1756 c0 -117 1 -125 20 -131 38 -12 51 12 44 76 -9 79 10 78 62 -2 45 -70 65 -85 94 -69 19 10 20 19 18 128 l-3 117 -30 0 -30 0 0 -64 c0 -35 -4 -66 -10 -67 -5 -2 -30 27 -55 64 -38 57 -50 67 -77 70 l-33 3 0 -125z"/> <path d="M4310 1850 c0 -26 4 -30 28 -30 46 0 50 -8 42 -90 -8 -88 -6 -98 26 -106 45 -12 56 11 52 106 l-3 85 35 5 c29 4 35 9 35 30 0 25 0 25 -107 28 l-108 3 0 -31z"/> <path d="M4619 1878 c-1 -2 -3 -56 -4 -121 -1 -114 -1 -119 20 -129 15 -7 29 -7 41 0 17 9 19 23 19 129 l0 118 -37 3 c-21 2 -39 2 -39 0z"/> <path d="M4870 1833 c-12 -26 -28 -61 -36 -76 -8 -16 -14 -34 -14 -42 0 -7 -7 -18 -15 -25 -8 -7 -15 -25 -15 -41 0 -24 4 -29 25 -29 15 0 31 9 41 25 13 20 24 25 60 25 33 0 49 -6 68 -25 28 -28 64 -33 73 -10 3 9 -2 24 -11 34 -9 10 -16 22 -16 28 0 6 -6 24 -14 40 -8 15 -22 46 -32 68 -9 22 -20 47 -24 55 -4 8 -21 16 -38 18 -29 3 -33 -1 -52 -45z m69 -65 c11 -30 3 -48 -19 -48 -27 0 -34 18 -19 46 16 30 27 30 38 2z"/> <path d="M5179 1840 c-41 -39 -41 -40 -37 -95 8 -95 78 -140 176 -113 l47 14 0 54 c0 52 -1 55 -25 55 -20 0 -26 -6 -30 -29 -7 -42 -33 -55 -67 -34 -22 13 -29 25 -31 57 -3 34 1 42 23 57 22 14 31 15 71 4 47 -14 63 -7 64 27 0 20 -56 43 -104 43 -39 0 -51 -5 -87 -40z"/> <path d="M5515 1846 c-39 -33 -40 -36 -40 -94 1 -51 5 -64 25 -85 75 -73 193 -48 230 48 18 48 4 90 -42 130 -35 29 -49 35 -87 35 -38 0 -53 -7 -86 -34z m130 -46 c25 -27 22 -80 -6 -102 -26 -22 -43 -23 -74 -2 -34 22 -35 86 -3 108 30 22 61 20 83 -4z"/> <path d="M5997 1873 c-4 -3 -7 -57 -7 -118 0 -91 3 -115 16 -126 11 -9 20 -10 32 -2 13 8 16 23 14 66 -2 30 1 58 6 61 6 3 22 -19 36 -50 19 -42 30 -55 42 -50 8 3 17 6 19 6 3 0 9 18 15 40 7 26 17 40 27 40 13 0 15 -8 10 -50 -5 -43 -3 -51 14 -61 40 -21 48 2 46 129 l-2 117 -32 3 c-27 3 -34 -2 -47 -27 -9 -16 -16 -37 -16 -45 0 -8 -11 -28 -24 -43 -23 -26 -25 -27 -31 -8 -4 11 -13 36 -20 55 -7 19 -16 43 -19 53 -4 12 -16 17 -39 17 -19 0 -37 -3 -40 -7z"/> <path d="M6380 1794 c0 -108 20 -148 82 -165 58 -15 106 5 135 56 19 33 23 52 21 115 l-3 75 -35 0 -35 0 -5 -85 c-5 -92 -12 -110 -39 -110 -37 0 -51 32 -51 118 l0 82 -35 0 -35 0 0 -86z"/> <path d="M6751 1851 c-17 -16 -31 -36 -31 -45 0 -26 44 -64 89 -76 25 -6 41 -17 41 -26 0 -24 -30 -28 -75 -12 -46 17 -69 11 -63 -18 8 -45 127 -63 176 -27 33 24 41 73 16 94 -9 8 -35 21 -58 30 -22 9 -43 24 -44 34 -4 16 2 17 52 11 48 -6 57 -5 63 10 10 28 -31 54 -87 54 -39 0 -54 -5 -79 -29z"/> <path d="M7027 1873 c-4 -3 -7 -57 -7 -118 0 -124 8 -143 55 -131 l25 6 0 125 0 125 -33 0 c-19 0 -37 -3 -40 -7z"/> <path d="M7254 1856 c-17 -14 -39 -43 -49 -66 l-19 -42 24 -47 c15 -27 37 -52 55 -61 62 -30 165 -6 165 40 0 25 -34 35 -71 20 -54 -23 -88 1 -89 63 0 23 35 57 59 57 11 0 27 -7 36 -16 14 -14 20 -15 41 -4 33 18 30 41 -7 63 -45 25 -107 22 -145 -7z"/> </g> </svg> 