<?xml version="1.0" standalone="no"?>
<!DOCTYPE svg PUBLIC "-//W3C//DTD SVG 20010904//EN"
 "http://www.w3.org/TR/2001/REC-SVG-20010904/DTD/svg10.dtd">
<svg version="1.0" xmlns="http://www.w3.org/2000/svg"
 width="300.000000pt" height="300.000000pt" viewBox="0 0 300.000000 300.000000"
 preserveAspectRatio="xMidYMid meet">
<metadata>
Created by potrace 1.10, written by Peter Selinger 2001-2011
</metadata>
<g transform="translate(0.000000,300.000000) scale(0.100000,-0.100000)"
fill="#000000" stroke="none">
<path d="M2125 2605 c-225 -49 -408 -205 -467 -399 -30 -96 -30 -236 0 -318
41 -113 129 -218 244 -291 30 -19 137 -76 240 -126 206 -101 271 -150 283
-215 15 -80 -20 -148 -99 -188 -58 -30 -201 -37 -281 -13 -78 22 -236 103
-305 154 -30 22 -57 37 -61 33 -4 -4 -53 -85 -110 -181 l-103 -174 33 -27 c46
-39 212 -129 287 -156 248 -91 551 -91 773 0 209 85 321 243 346 487 14 143
-34 270 -144 380 -93 92 -171 141 -364 230 -261 121 -321 161 -333 227 -14 76
42 159 123 181 53 15 147 13 218 -4 73 -17 195 -67 236 -96 17 -12 31 -20 33
-18 2 2 42 81 90 174 l86 170 -22 19 c-13 10 -59 36 -103 57 -195 92 -438 130
-600 94z m330 -40 c130 -28 282 -85 339 -127 17 -14 14 -21 -53 -156 -39 -78
-76 -142 -81 -142 -6 0 -34 12 -63 26 -137 70 -313 102 -410 74 -84 -23 -156
-108 -157 -183 0 -40 33 -98 76 -137 21 -18 94 -59 163 -92 284 -135 331 -161
412 -226 88 -71 160 -164 178 -229 6 -21 11 -85 11 -143 0 -236 -89 -387 -284
-480 -136 -64 -195 -75 -406 -75 -159 0 -198 4 -275 23 -93 24 -327 132 -377
174 l-27 23 89 150 c49 82 94 151 99 153 5 2 31 -12 58 -31 58 -42 209 -118
278 -141 64 -21 145 -26 219 -15 67 11 109 30 149 68 43 40 57 74 57 142 0 52
-5 70 -27 101 -36 52 -128 111 -316 201 -177 85 -264 143 -330 218 -115 132
-146 311 -83 485 54 148 202 276 386 335 72 22 276 25 375 4z"/>
<path d="M140 1620 l0 -960 33 0 34 0 6 707 c4 388 7 820 7 960 l0 253 -40 0
-40 0 0 -960z m44 -2 c-4 -508 -8 -925 -10 -927 -2 -2 -4 413 -4 922 0 618 3
927 10 927 7 0 8 -303 4 -922z"/>
<path d="M287 1988 c-4 -326 -7 -758 -7 -960 l0 -368 40 0 40 0 0 960 0 960
-33 0 -34 0 -6 -592z m43 -373 c0 -610 -3 -925 -10 -925 -6 0 -10 112 -10 318
0 407 12 1532 17 1532 1 0 3 -416 3 -925z"/>
<path d="M430 1620 l0 -963 208 6 c209 6 280 16 395 56 286 99 526 362 599
656 32 129 32 362 0 488 -87 346 -363 611 -722 693 -40 9 -145 17 -272 21
l-208 6 0 -963z m530 890 c250 -66 486 -265 590 -494 55 -120 74 -222 75 -391
0 -167 -16 -260 -66 -378 -116 -275 -379 -481 -684 -537 -33 -6 -140 -14 -237
-17 l-178 -6 0 927 0 928 208 -5 c174 -3 221 -8 292 -27z"/>
<path d="M567 2205 c-12 -11 -16 -63 -22 -242 -11 -311 1 -911 17 -931 18 -22
183 -11 268 17 169 57 305 204 360 389 20 64 22 89 17 210 -5 139 -14 179 -64
276 -53 103 -168 208 -278 253 -99 42 -269 58 -298 28z m198 -30 c284 -60 463
-338 416 -643 -21 -138 -67 -233 -153 -321 -98 -99 -209 -148 -361 -158 l-92
-6 0 572 0 571 60 0 c33 0 92 -7 130 -15z"/>
</g>
</svg>
